<svg width="70" height="70" viewBox="0 0 70 70" fill="none" xmlns="http://www.w3.org/2000/svg">
<g filter="url(#filter0_d)">
<circle cx="35" cy="35" r="31" fill="#5CC4FF"/>
</g>
<g clip-path="url(#clip0)">
<path d="M48.857 47.1097C48.3645 44.7286 46.5252 42.8036 44.1698 42.2054C42.5586 41.7976 40.9395 42.0031 39.5204 42.7846L37.7024 38.6389L44.6592 21.8C44.8684 21.293 44.9739 20.759 44.9739 20.2123C44.9739 18.8293 44.2926 17.5455 43.1519 16.7782L42.1983 16.1371C42.0001 16.003 41.7531 15.9649 41.5265 16.0331C41.2983 16.0998 41.1111 16.2648 41.0151 16.4846L34.5013 31.3391L27.9873 16.4847C27.8913 16.2649 27.7041 16.0998 27.4759 16.0332C27.2478 15.9649 27.0007 16.003 26.8041 16.1372L25.8506 16.7783C24.7099 17.5455 24.0286 18.8293 24.0286 20.2123C24.0286 20.759 24.134 21.2929 24.3433 21.8L31.2998 38.6403L29.4805 42.7853C28.5443 42.2696 27.5106 42.0006 26.4454 42.0006C22.8911 42.0006 20.0006 44.9166 20.0006 48.5006C20.0006 52.0846 22.891 55.0006 26.4454 55.0006C29.9997 55.0006 32.8901 52.0846 32.8901 48.5006C32.8901 46.0971 33.6699 44.34 34.5002 43.1388C35.3074 44.3041 36.0613 45.9725 36.1093 48.2689C36.1848 51.8633 38.8675 54.8157 42.2141 54.9918C42.3306 54.9974 42.4454 55.0006 42.5587 55.0006C44.4484 55.0006 46.2169 54.1833 47.4536 52.7273C48.7658 51.1825 49.2771 49.1346 48.857 47.1097ZM26.4451 51.7506C24.6688 51.7506 23.2229 50.2931 23.2229 48.5006C23.2229 46.7081 24.6688 45.2506 26.4451 45.2506C28.2215 45.2506 29.6674 46.7081 29.6674 48.5006C29.6674 50.2931 28.2215 51.7506 26.4451 51.7506ZM34.5006 40.3757C33.6117 40.3757 32.8896 39.6465 32.8896 38.7507C32.8896 37.8549 33.6118 37.1257 34.5006 37.1257C35.3896 37.1257 36.1117 37.8549 36.1117 38.7507C36.1117 39.6465 35.3896 40.3757 34.5006 40.3757ZM42.5562 51.7506C40.7799 51.7506 39.334 50.2931 39.334 48.5006C39.334 46.7081 40.7799 45.2506 42.5562 45.2506C44.3325 45.2506 45.7785 46.7081 45.7785 48.5006C45.7785 50.2931 44.3325 51.7506 42.5562 51.7506Z" fill="white"/>
</g>
<defs>
<filter id="filter0_d" x="0" y="0" width="70" height="70" filterUnits="userSpaceOnUse" color-interpolation-filters="sRGB">
<feFlood flood-opacity="0" result="BackgroundImageFix"/>
<feColorMatrix in="SourceAlpha" type="matrix" values="0 0 0 0 0 0 0 0 0 0 0 0 0 0 0 0 0 0 127 0"/>
<feOffset/>
<feGaussianBlur stdDeviation="2"/>
<feColorMatrix type="matrix" values="0 0 0 0 0.180392 0 0 0 0 0.180392 0 0 0 0 0.180392 0 0 0 0.25 0"/>
<feBlend mode="normal" in2="BackgroundImageFix" result="effect1_dropShadow"/>
<feBlend mode="normal" in="SourceGraphic" in2="effect1_dropShadow" result="shape"/>
</filter>
<clipPath id="clip0">
<rect x="20" y="16" width="29" height="39" fill="white"/>
</clipPath>
</defs>
</svg>
