<svg width="124" height="36" viewBox="0 0 124 36" fill="none" xmlns="http://www.w3.org/2000/svg">
<path d="M12.3408 22.3994H6.00684V35H0.324219V2.29688H11.8242C15.5977 2.29688 18.5101 3.1429 20.5615 4.83496C22.613 6.52702 23.6387 8.97526 23.6387 12.1797C23.6387 14.3659 23.1071 16.2002 22.0439 17.6826C20.9958 19.1501 19.5283 20.2806 17.6416 21.0742L24.9863 34.708V35H18.8994L12.3408 22.3994ZM6.00684 17.8398H11.8467C13.7633 17.8398 15.2607 17.3607 16.3389 16.4023C17.417 15.429 17.9561 14.1038 17.9561 12.4268C17.9561 10.6748 17.4544 9.31966 16.4512 8.36133C15.4629 7.40299 13.9805 6.90885 12.0039 6.87891H6.00684V17.8398ZM39.2041 35.4492C35.7451 35.4492 32.9375 34.3636 30.7812 32.1924C28.64 30.0062 27.5693 27.1012 27.5693 23.4775V22.8037C27.5693 20.3779 28.0335 18.2142 28.9619 16.3125C29.9053 14.3958 31.223 12.9059 32.915 11.8428C34.6071 10.7796 36.4938 10.248 38.5752 10.248C41.8844 10.248 44.4375 11.3037 46.2344 13.415C48.0462 15.5264 48.9521 18.5137 48.9521 22.377V24.5781H33.0723C33.237 26.5846 33.9033 28.1719 35.0713 29.3398C36.2542 30.5078 37.7367 31.0918 39.5186 31.0918C42.0192 31.0918 44.0557 30.0811 45.6279 28.0596L48.5703 30.8672C47.597 32.3197 46.2943 33.4502 44.6621 34.2588C43.0449 35.0524 41.2256 35.4492 39.2041 35.4492ZM38.5527 14.6279C37.0553 14.6279 35.8424 15.152 34.9141 16.2002C34.0007 17.2484 33.4167 18.7083 33.1621 20.5801H43.5615V20.1758C43.4417 18.349 42.9551 16.9714 42.1016 16.043C41.248 15.0996 40.0651 14.6279 38.5527 14.6279Z" fill="#5CC4FF"/>
<path d="M59.0146 35H53.5566V0.5H59.0146V35ZM70.7842 35H65.3262V10.6973H70.7842V35ZM64.9893 4.38574C64.9893 3.5472 65.2513 2.85091 65.7754 2.29688C66.3145 1.74284 67.0781 1.46582 68.0664 1.46582C69.0547 1.46582 69.8184 1.74284 70.3574 2.29688C70.8965 2.85091 71.166 3.5472 71.166 4.38574C71.166 5.20931 70.8965 5.89811 70.3574 6.45215C69.8184 6.99121 69.0547 7.26074 68.0664 7.26074C67.0781 7.26074 66.3145 6.99121 65.7754 6.45215C65.2513 5.89811 64.9893 5.20931 64.9893 4.38574ZM81.8125 10.6973L81.9697 13.5049C83.7666 11.3337 86.125 10.248 89.0449 10.248C94.1061 10.248 96.6816 13.1455 96.7715 18.9404V35H91.3135V19.2549C91.3135 17.7126 90.9766 16.5745 90.3027 15.8408C89.6439 15.0921 88.5583 14.7178 87.0459 14.7178C84.8447 14.7178 83.2051 15.7135 82.127 17.7051V35H76.6689V10.6973H81.8125ZM110.248 24.5781L107.822 27.0713V35H102.364V0.5H107.822V20.4004L109.529 18.2666L116.245 10.6973H122.804L113.774 20.8271L123.77 35H117.458L110.248 24.5781Z" fill="white"/>
</svg>
