<svg width="98" height="28" viewBox="0 0 98 28" fill="none" xmlns="http://www.w3.org/2000/svg">
<path d="M10.0059 17.1387H5.04883V27H0.601562V1.40625H9.60156C12.5547 1.40625 14.834 2.06836 16.4395 3.39258C18.0449 4.7168 18.8477 6.63281 18.8477 9.14062C18.8477 10.8516 18.4316 12.2871 17.5996 13.4473C16.7793 14.5957 15.6309 15.4805 14.1543 16.1016L19.9023 26.7715V27H15.1387L10.0059 17.1387ZM5.04883 13.5703H9.61914C11.1191 13.5703 12.291 13.1953 13.1348 12.4453C13.9785 11.6836 14.4004 10.6465 14.4004 9.33398C14.4004 7.96289 14.0078 6.90234 13.2227 6.15234C12.4492 5.40234 11.2891 5.01562 9.74219 4.99219H5.04883V13.5703ZM31.0293 27.3516C28.3223 27.3516 26.125 26.502 24.4375 24.8027C22.7617 23.0918 21.9238 20.8184 21.9238 17.9824V17.4551C21.9238 15.5566 22.2871 13.8633 23.0137 12.375C23.752 10.875 24.7832 9.70898 26.1074 8.87695C27.4316 8.04492 28.9082 7.62891 30.5371 7.62891C33.127 7.62891 35.125 8.45508 36.5312 10.1074C37.9492 11.7598 38.6582 14.0977 38.6582 17.1211V18.8438H26.2305C26.3594 20.4141 26.8809 21.6562 27.7949 22.5703C28.7207 23.4844 29.8809 23.9414 31.2754 23.9414C33.2324 23.9414 34.8262 23.1504 36.0566 21.5684L38.3594 23.7656C37.5977 24.9023 36.5781 25.7871 35.3008 26.4199C34.0352 27.041 32.6113 27.3516 31.0293 27.3516ZM30.5195 11.0566C29.3477 11.0566 28.3984 11.4668 27.6719 12.2871C26.957 13.1074 26.5 14.25 26.3008 15.7148H34.4395V15.3984C34.3457 13.9688 33.9648 12.8906 33.2969 12.1641C32.6289 11.4258 31.7031 11.0566 30.5195 11.0566Z" fill="#5CC4FF"/>
<path d="M46.5332 27H42.2617V0H46.5332V27ZM55.7441 27H51.4727V7.98047H55.7441V27ZM51.209 3.04102C51.209 2.38477 51.4141 1.83984 51.8242 1.40625C52.2461 0.972656 52.8438 0.755859 53.6172 0.755859C54.3906 0.755859 54.9883 0.972656 55.4102 1.40625C55.832 1.83984 56.043 2.38477 56.043 3.04102C56.043 3.68555 55.832 4.22461 55.4102 4.6582C54.9883 5.08008 54.3906 5.29102 53.6172 5.29102C52.8438 5.29102 52.2461 5.08008 51.8242 4.6582C51.4141 4.22461 51.209 3.68555 51.209 3.04102ZM64.375 7.98047L64.498 10.1777C65.9043 8.47852 67.75 7.62891 70.0352 7.62891C73.9961 7.62891 76.0117 9.89648 76.082 14.4316V27H71.8105V14.6777C71.8105 13.4707 71.5469 12.5801 71.0195 12.0059C70.5039 11.4199 69.6543 11.127 68.4707 11.127C66.748 11.127 65.4648 11.9062 64.6211 13.4648V27H60.3496V7.98047H64.375ZM86.6289 18.8438L84.7305 20.7949V27H80.459V0H84.7305V15.5742L86.0664 13.9043L91.3223 7.98047H96.4551L89.3887 15.9082L97.2109 27H92.2715L86.6289 18.8438Z" fill="white"/>
</svg>
