<svg width="52" height="52" viewBox="0 0 52 52" fill="none" xmlns="http://www.w3.org/2000/svg">
<path d="M18.4318 1.28714H33.5941C47.4436 1.28714 50.7129 4.58219 50.7129 18.4317V33.5941C50.7129 47.4436 47.4179 50.7129 33.5684 50.7129H18.406C4.55651 50.7129 1.2872 47.4179 1.2872 33.5684V18.406C1.2872 4.58219 4.58225 1.28714 18.4318 1.28714Z" fill="#5181B8"/>
<path d="M0 0H52V52H0V0Z" fill="#5181B8"/>
<path fill-rule="evenodd" clip-rule="evenodd" d="M41.7545 18.303C41.9862 17.5307 41.7545 16.9901 40.6733 16.9901H37.0693C36.1426 16.9901 35.7307 17.4792 35.499 18.0198C35.499 18.0198 33.6713 22.499 31.0713 25.3822C30.2218 26.2317 29.8614 26.4892 29.398 26.4892C29.1664 26.4892 28.8317 26.2317 28.8317 25.4594V18.303C28.8317 17.3763 28.5743 16.9901 27.802 16.9901H22.1386C21.5723 16.9901 21.2119 17.4277 21.2119 17.8139C21.2119 18.6891 22.499 18.8951 22.6535 21.3149V26.6179C22.6535 27.7763 22.4475 27.9822 21.9842 27.9822C20.7743 27.9822 17.7881 23.503 16.0376 18.3545C15.6773 17.402 15.3426 16.9901 14.4159 16.9901H10.8119C9.7822 16.9901 9.57626 17.4792 9.57626 18.0198C9.57626 18.9723 10.7862 23.7089 15.2654 29.9644C18.2515 34.2377 22.4476 36.5545 26.2575 36.5545C28.5485 36.5545 28.8317 36.0397 28.8317 35.1644V31.9209C28.8317 30.8911 29.0376 30.6852 29.7842 30.6852C30.3248 30.6852 31.2258 30.9426 33.3624 33.002C35.8079 35.4476 36.2198 36.5545 37.5842 36.5545H41.1881C42.2178 36.5545 42.7327 36.0397 42.4238 35.0357C42.0891 34.0317 40.9307 32.5644 39.3862 30.8139C38.5367 29.81 37.2753 28.7545 36.9149 28.2139C36.3743 27.5189 36.5287 27.2099 36.9149 26.6179C36.9149 26.5921 41.3169 20.4139 41.7545 18.303Z" fill="white"/>
</svg>
