<svg width="25" height="33" viewBox="0 0 25 33" fill="none" xmlns="http://www.w3.org/2000/svg">
<path d="M12.3408 20.3994H6.00684V33H0.324219V0.296875H11.8242C15.5977 0.296875 18.5101 1.1429 20.5615 2.83496C22.613 4.52702 23.6387 6.97526 23.6387 10.1797C23.6387 12.3659 23.1071 14.2002 22.0439 15.6826C20.9958 17.1501 19.5283 18.2806 17.6416 19.0742L24.9863 32.708V33H18.8994L12.3408 20.3994ZM6.00684 15.8398H11.8467C13.7633 15.8398 15.2607 15.3607 16.3389 14.4023C17.417 13.429 17.9561 12.1038 17.9561 10.4268C17.9561 8.6748 17.4544 7.31966 16.4512 6.36133C15.4629 5.40299 13.9805 4.90885 12.0039 4.87891H6.00684V15.8398Z" fill="#5CC4FF"/>
</svg>
