<svg width="40" height="26" viewBox="0 0 40 26" fill="none" xmlns="http://www.w3.org/2000/svg">
<path d="M10.0059 16.1387H5.04883V26H0.601562V0.40625H9.60156C12.5547 0.40625 14.834 1.06836 16.4395 2.39258C18.0449 3.7168 18.8477 5.63281 18.8477 8.14062C18.8477 9.85156 18.4316 11.2871 17.5996 12.4473C16.7793 13.5957 15.6309 14.4805 14.1543 15.1016L19.9023 25.7715V26H15.1387L10.0059 16.1387ZM5.04883 12.5703H9.61914C11.1191 12.5703 12.291 12.1953 13.1348 11.4453C13.9785 10.6836 14.4004 9.64648 14.4004 8.33398C14.4004 6.96289 14.0078 5.90234 13.2227 5.15234C12.4492 4.40234 11.2891 4.01562 9.74219 3.99219H5.04883V12.5703Z" fill="#5CC4FF"/>
<path d="M27.5137 22.4492H39.1328V26H23.0664V0.40625H27.5137V22.4492Z" fill="white"/>
</svg>
